<svg width="160" height="161" viewBox="0 0 160 161" fill="none" xmlns="http://www.w3.org/2000/svg">
<circle cx="80" cy="80.9287" r="78" stroke="#F4902B" stroke-width="4"/>
<path d="M135 81.0181C135 111.401 110.375 136.031 80 136.031C49.6248 136.031 25 111.401 25 81.0181C25 50.635 49.6248 26.0054 80 26.0054C110.375 26.0054 135 50.635 135 81.0181Z" stroke="#F4902B" stroke-width="4"/>
<path d="M113 81.0181C113 99.2482 98.225 114.026 80 114.026C61.775 114.026 47 99.2482 47 81.0181C47 62.7879 61.775 48.0103 80 48.0103C98.225 48.0103 113 62.7879 113 81.0181Z" stroke="#F4902B" stroke-width="4"/>
<ellipse cx="80" cy="81.0179" rx="19" ry="19.0042" fill="#F4902B"/>
</svg>
