<svg width="40" height="40" viewBox="0 0 40 40" fill="none" xmlns="http://www.w3.org/2000/svg">
<g opacity="0.5">
<path d="M40 20C40 31.0457 31.0457 40 20 40C8.95431 40 0 31.0457 0 20C0 8.95431 8.95431 0 20 0C31.0457 0 40 8.95431 40 20Z" fill="#D9D9D9" fill-opacity="0.7"/>
<path d="M39.3333 20C39.3333 30.6775 30.6775 39.3333 20 39.3333C9.3225 39.3333 0.666667 30.6775 0.666667 20C0.666667 9.3225 9.3225 0.666667 20 0.666667C30.6775 0.666667 39.3333 9.3225 39.3333 20Z" stroke="black" stroke-opacity="0.7" stroke-width="1.33333"/>
</g>
<circle cx="19.9998" cy="17.3333" r="1.33333" fill="black" fill-opacity="0.4"/>
<circle cx="1.33333" cy="1.33333" r="1.33333" transform="matrix(-1 0 0 1 21.3335 24)" fill="black" fill-opacity="0.4"/>
<circle cx="19.9998" cy="21.3333" r="1.33333" fill="black" fill-opacity="0.1"/>
<path d="M13.3335 14.6668L20.0002 9.3335L26.6668 14.6668" stroke="black" stroke-opacity="0.7" stroke-width="1.33333" stroke-linecap="round"/>
<path d="M26.6665 27.6667L19.9998 33L13.3332 27.6667" stroke="black" stroke-opacity="0.7" stroke-width="1.33333" stroke-linecap="round"/>
</svg>
