<svg width="35" height="35" viewBox="0 0 35 35" fill="none" xmlns="http://www.w3.org/2000/svg">
<path d="M6.0643 20.3155C5.0245 18.5825 5.0245 16.4175 6.0643 14.6845C6.3816 14.1557 6.90727 13.7852 7.51202 13.6643L9.98102 13.1705C10.1281 13.141 10.2607 13.0622 10.3567 12.9469L14.6708 7.76998C15.8534 6.35092 16.4447 5.64138 16.9723 5.83242C17.5 6.02346 17.5 6.94707 17.5 8.79428L17.5 26.2057C17.5 28.0529 17.5 28.9765 16.9723 29.1676C16.4447 29.3586 15.8534 28.6491 14.6708 27.23L10.3567 22.0531C10.2607 21.9378 10.1281 21.859 9.98102 21.8295L7.51202 21.3357C6.90727 21.2148 6.3816 20.8443 6.0643 20.3155Z" fill="#545454"/>
<path d="M21.875 21.875L30.625 13.125" stroke="#545454" stroke-width="2" stroke-linecap="round"/>
<path d="M30.625 21.875L21.875 13.125" stroke="#545454" stroke-width="2" stroke-linecap="round"/>
</svg>
