<svg width="41" height="41" viewBox="0 0 41 41" fill="none" xmlns="http://www.w3.org/2000/svg">
<path fill-rule="evenodd" clip-rule="evenodd" d="M16.1966 0.363361C13.2728 1.00582 10.0956 2.47245 7.95107 4.16974C4.9392 6.55323 2.32442 10.2589 1.08038 13.9065C-2.2062 23.5445 2.2292 34.3427 11.3502 38.9082C14.221 40.3451 16.3177 40.8567 19.853 40.9827C24.6191 41.1528 28.3578 40.0743 32.1848 37.426C39.4003 32.4324 42.6277 23.3283 40.2022 14.8098C38.2304 7.88496 32.7366 2.45806 25.8147 0.597661C23.2408 -0.0941108 18.7732 -0.202914 16.1966 0.363361ZM14.6451 7.79266C14.7435 7.97995 14.9664 8.69225 15.1402 9.37577C15.3142 10.0595 15.519 10.7323 15.5952 10.8712C15.6776 11.0213 15.9229 10.3976 16.1991 9.33605C16.6599 7.56527 16.6703 7.54781 17.2868 7.48698C18.4824 7.36877 18.4881 7.42596 17.5442 10.0808C16.7404 12.3417 16.6624 12.7212 16.5649 14.8403L16.4591 17.143L15.6578 17.2019L14.8565 17.261V15.2709C14.8565 13.376 14.8114 13.1499 13.9137 10.5417C13.3952 9.03516 12.971 7.72377 12.971 7.62744C12.971 7.53111 13.3073 7.45244 13.7186 7.45244C14.2412 7.45244 14.5199 7.55472 14.6451 7.79266ZM21.5088 10.0132C22.5332 10.449 22.6412 10.7246 22.7087 13.0749C22.806 16.4635 22.4221 17.2389 20.6471 17.2389C18.7892 17.2389 18.4389 16.6358 18.4389 13.4366C18.4389 10.8627 18.6595 10.3078 19.8177 9.96661C20.6635 9.71773 20.8244 9.72214 21.5088 10.0132ZM25.2266 12.8314C25.2266 15.2494 25.2735 15.7341 25.5164 15.8291C25.6759 15.8913 25.9729 15.7888 26.1763 15.6013C26.5102 15.2937 26.5464 14.9999 26.5464 12.5923V9.92382L27.2535 9.9835L27.9605 10.043L28.0122 13.4828C28.0678 17.1912 28.0578 17.2303 27.0649 17.2361C26.6724 17.2382 26.5464 17.1465 26.5464 16.858C26.5464 16.4781 26.5447 16.4781 25.9336 16.8573C25.2419 17.2865 24.4698 17.3514 24.133 17.0087C23.9741 16.8469 23.9068 15.7635 23.9068 13.3627V9.94704H24.5667H25.2266V12.8314ZM20.179 11.3231C19.8368 11.6714 19.8601 15.5833 20.2061 15.8755C20.9609 16.513 21.3037 15.1736 21.0844 12.4436C20.9812 11.1615 20.6909 10.8021 20.179 11.3231ZM30.3898 19.5843C31.5712 19.9414 32.8609 21.3527 33.2499 22.7144C33.6858 24.2405 33.5708 28.5282 33.0672 29.5201C32.5964 30.4477 31.6855 31.3943 30.7888 31.8876C30.0508 32.2935 29.8447 32.3036 21.2192 32.3576C15.6827 32.3923 12.14 32.3405 11.6947 32.2184C10.4267 31.8709 9.33878 31.0145 8.73675 29.8898C8.22541 28.9344 8.17299 28.6577 8.10266 26.5375C7.97124 22.5831 8.60439 20.9572 10.6963 19.8775L11.7188 19.3498H20.6662C27.1671 19.3498 29.8258 19.4139 30.3898 19.5843ZM11.8397 21.641C11.8397 22.1543 11.9032 22.2103 12.5467 22.2646L13.2538 22.3241L13.3051 26.018L13.3562 29.7119H14.0121H14.6679V25.97V22.2281H15.4221C16.1344 22.2281 16.1763 22.1961 16.1763 21.6525V21.0768H14.008H11.8397V21.641ZM21.4556 25.3648V29.6526L21.8799 29.6287C22.1131 29.6154 22.3978 29.5452 22.5121 29.4725C22.6265 29.3997 22.9812 29.4406 23.3002 29.563C23.7427 29.7331 23.9963 29.7321 24.3698 29.5588L24.8597 29.3316L24.8074 26.5066L24.7552 23.6815L24.2345 23.3866C23.7612 23.1185 23.6626 23.1214 23.1503 23.4185L22.5869 23.7454V22.411V21.0768H22.0213H21.4556V25.3648ZM26.2702 23.6432C25.7257 24.1973 25.5196 25.3974 25.6499 27.2528C25.7792 29.0908 26.1569 29.596 27.4599 29.674C28.286 29.7233 28.4994 29.6607 28.902 29.2508C29.1995 28.948 29.3746 28.5535 29.3746 28.1854C29.3746 27.6478 29.323 27.6011 28.7272 27.6011C28.1617 27.6011 28.0723 27.6677 28.0201 28.1271C27.9824 28.4602 27.8304 28.6784 27.6061 28.7218C27.1311 28.8135 26.9299 28.4393 26.9263 27.4572L26.9235 26.6417H28.1491H29.3746V25.3857C29.3746 24.3079 29.309 24.0628 28.9118 23.6587C28.2658 23.0011 26.9088 22.9932 26.2702 23.6432ZM16.7844 26.3811C16.8488 30.1163 16.8345 30.0965 18.8631 29.2353C19.0976 29.1357 19.1931 29.1844 19.1931 29.4036C19.1931 29.6183 19.3648 29.7119 19.7587 29.7119H20.3243V26.5457V23.3795H19.7587H19.1931V25.7398C19.1931 28.1588 19.0831 28.5606 18.4215 28.5606C17.9592 28.5606 17.8664 27.9241 17.9781 25.5164L18.077 23.3795H17.4047H16.7323L16.7844 26.3811ZM23.6285 24.5788C23.6867 24.8164 23.7095 25.8309 23.6792 26.8336C23.6245 28.635 23.6185 28.6565 23.1526 28.6565C22.6833 28.6565 22.681 28.6473 22.6271 26.6547C22.5973 25.5536 22.616 24.5389 22.6684 24.4C22.8283 23.9755 23.5116 24.1027 23.6285 24.5788ZM28.019 24.9641C28.075 25.6502 28.0518 25.6822 27.5005 25.6822C26.9942 25.6822 26.9235 25.6164 26.9235 25.1449C26.9235 23.9669 27.9243 23.8019 28.019 24.9641Z" fill="#FFFDFA"/>
</svg>
